{"title":"The Courageous Heart of Irena Sendler 2009 480p HDRip XviD title","uid":9758998,"size":1290184104,"categoryP":"video","categoryS":"movies","magnet":"?xt=urn:btih:8e6615853c2c8c47c241e7d2220840867dd4767f&amp;dn=The+Courageous+Heart+of+Irena+Sendler+2009+480p+HDRip+XviD+title&amp;tr=udp%3A%2F%2Ftracker.openbittorrent.com%3A80&amp;tr=udp%3A%2F%2Fopen.demonii.com%3A1337&amp;tr=udp%3A%2F%2Ftracker.coppersurfer.tk%3A6969&amp;tr=udp%3A%2F%2Fexodus.desync.com%3A6969","seeders":1,"leechers":0,"uploader":"movieZ.freak","files":4,"time":1394786203,"description":"SOURCE: The Courageous Heart of Irena Sendler 2009 HDTV 720p AC3\n\n\n &lt;a href=&quot;\nhttp://www.imdb.com/title/tt1010278/&quot; rel=&quot;nofollow&quot; target=&quot;_NEW&quot;&gt;\nhttp://www.imdb.com/title/tt1010278/&lt;/a&gt;\n\n\n &lt;a href=&quot;\nhttp://www.rottentomatoes.com/m/miss-irenas-children/&quot; rel=&quot;nofollow&quot; target=&quot;_NEW&quot;&gt;\nhttp://www.rottentomatoes.com/m/miss-irenas-children/&lt;/a&gt;\n\n\n &lt;a href=&quot;\nhttp://en.wikipedia.org/wiki/The_Courageous_Heart_of_Irena_Sendler&quot; rel=&quot;nofollow&quot; target=&quot;_NEW&quot;&gt;\nhttp://en.wikipedia.org/wiki/The_Courageous_Heart_of_Irena_Sendler&lt;/a&gt;\n\n\n\nBASED ON ACTUAL EVENTS\n------------------------------------- &lt;a href=&quot;\nhttp://en.wikipedia.org/wiki/Irena_Sendler&quot; rel=&quot;nofollow&quot; target=&quot;_NEW&quot;&gt;\nhttp://en.wikipedia.org/wiki/Irena_Sendler&lt;/a&gt;\n\n\n\n\n- SAMPLE: Yes\n\n\n- SUBTITLE: English\n\n\n- LANGUAGE / AUDIO: English\n\n\n\n\nSCREENSHOTS:\n-------------------    &lt;a href=&quot;\nhttp://someimage.com/p2W5&quot; rel=&quot;nofollow&quot; target=&quot;_NEW&quot;&gt;\nhttp://someimage.com/p2W5&lt;/a&gt;\n\n\n\n\nDIRECTOR: John Kent Harrison\n\n\n\nCAST: Anna Paquin, Marcia Gay Harden, Goran Visnjic, Nathaniel Parker, Steve Speirs, Paul Freeman, Michelle Dockery,...\n\n\nPLOT:\n-----------\nThe story of Irena Sendler, a social worker who was part of the Polish underground during World War II and was arrested by the Nazis for saving the lives of nearly 2,500 Jewish children by smuggling them out of the Warsaw ghetto.\n\n\n************************************\n\n- Duration: 1h 35mn\n\n- Bit rate: 1639 Kbps\n\n- Res: 854 x 480\n\n- AR: 16:9\n\n- FPS: 23.976 fps\n\n- Audio: AC3, 2 channels, 128Kbps\n\n************************************\n\n\nGeneral\n-------------\nFormat : AVI\nFormat/Info : Audio Video Interleave\nFile size : 1.18 GiB\nDuration : 1h 35mn\nOverall bit rate : 1776 Kbps\nWriting library : VirtualDub build 35491\n\n\nVideo\n------------\nFormat : MPEG-4 Visual\nFormat profile : Advanced Simple@L5\nFormat settings, BVOP : 2\nFormat settings, QPel : No\nFormat settings, GMC : No warppoints\nFormat settings, Matrix : Default (H.263)\nCodec ID : XVID\nCodec ID/Hint : XviD\nDuration : 1h 35mn\nBit rate : 1639 Kbps\nWidth : 854 pixels\nHeight : 480 pixels\nDisplay aspect ratio : 16:9\nFrame rate : 23.976 fps\nColor space : YUV\nChroma subsampling : 4:2:0\nBit depth : 8 bits\nScan type : Progressive\nCompression mode : Lossy\nBits/(Pixel*Frame) : 0.167\nStream size : 1.09 GiB (92%)\nWriting library : XviD 65\n\n\nAudio\n---------------\nFormat : AC-3\nFormat/Info : Audio Coding 3\nMode extension : CM (complete main)\nFormat settings, Endianness : Big\nCodec ID : 2000\nDuration : 1h 35mn\nBit rate mode : Constant\nBit rate : 128 Kbps\nChannel(s) : 2 channels\nChannel positions : Front: L R\nSampling rate : 48.0 KHz\nBit depth : 16 bits\nCompression mode : Lossy\nStream size : 87.2 MiB (7%)\nAlignment : Aligned on interleaves\nInterleave, duration : 42 ms (1.00 video frame)\nInterleave, preload duration : 512 ms","torrent":{"xt":"urn:btih:8e6615853c2c8c47c241e7d2220840867dd4767f","amp;dn":"The+Courageous+Heart+of+Irena+Sendler+2009+480p+HDRip+XviD+title","amp;tr":["udp%3A%2F%2Ftracker.openbittorrent.com%3A80","udp%3A%2F%2Fopen.demonii.com%3A1337","udp%3A%2F%2Ftracker.coppersurfer.tk%3A6969","udp%3A%2F%2Fexodus.desync.com%3A6969"],"infoHash":"8e6615853c2c8c47c241e7d2220840867dd4767f","infoHashBuffer":{"type":"Buffer","data":[142,102,21,133,60,44,140,71,194,65,231,210,34,8,64,134,125,212,118,127]},"announce":[],"urlList":[]}}